<svg width="84" height="86" viewBox="0 0 84 86" fill="none" xmlns="http://www.w3.org/2000/svg">
<g clip-path="url(#clip0_3_8635)">
<g opacity="0.6" filter="url(#filter0_f_3_8635)">
<path d="M52.7999 22.2514C52.6462 21.4892 52.5687 20.7135 52.5687 19.9359C52.5713 17.4069 53.4036 14.9487 54.9379 12.9384C56.4722 10.9281 58.6237 9.47673 61.0624 8.80702C63.501 8.1373 66.092 8.28623 68.4378 9.23096C70.7837 10.1757 72.7547 11.864 74.0486 14.0369C75.3424 16.2098 75.8876 18.7472 75.6004 21.2597C75.3132 23.7723 74.2096 26.1212 72.4588 27.9461C70.708 29.771 68.4069 30.971 65.9083 31.3621C63.4098 31.7531 60.852 31.3136 58.6274 30.1109" stroke="#9D00FF" stroke-width="3" stroke-linecap="round" stroke-linejoin="round"/>
</g>
<g filter="url(#filter1_d_3_8635)">
<path d="M52.7999 22.2514C52.6462 21.4892 52.5687 20.7135 52.5687 19.9359C52.5713 17.4069 53.4036 14.9487 54.9379 12.9384C56.4722 10.9281 58.6237 9.47673 61.0624 8.80702C63.501 8.1373 66.092 8.28623 68.4378 9.23096C70.7837 10.1757 72.7547 11.864 74.0486 14.0369C75.3424 16.2098 75.8876 18.7472 75.6004 21.2597C75.3132 23.7723 74.2096 26.1212 72.4588 27.9461C70.708 29.771 68.4069 30.971 65.9083 31.3621C63.4098 31.7531 60.852 31.3136 58.6274 30.1109" stroke="#9D00FF" stroke-width="3" stroke-linecap="round" stroke-linejoin="round" shape-rendering="crispEdges"/>
</g>
<g opacity="0.81" filter="url(#filter2_f_3_8635)">
<path d="M29.4437 77.7485H47.9437" stroke="#FF1083" stroke-width="3" stroke-linecap="round" stroke-linejoin="round"/>
<path d="M38.6937 77.7485V49.9985" stroke="#FF1083" stroke-width="3" stroke-linecap="round" stroke-linejoin="round"/>
<path d="M6.41148 6.87641L4.91435 6.78359L4.72872 9.77785L6.22585 9.87066L6.41148 6.87641ZM17.4519 9.06375L18.7551 8.32109L18.3538 7.61678L17.5447 7.56662L17.4519 9.06375ZM24.1967 23.9297C24.6069 24.6494 25.5229 24.9004 26.2427 24.4903C26.9624 24.0801 27.2134 23.1641 26.8033 22.4444L24.1967 23.9297ZM6.22585 9.87066L17.3591 10.5609L17.5447 7.56662L6.41148 6.87641L6.22585 9.87066ZM16.1486 9.8064L24.1967 23.9297L26.8033 22.4444L18.7551 8.32109L16.1486 9.8064Z" fill="#FF1083"/>
<path d="M62.9943 23.6763L64.0965 24.6938L66.4206 22.1763H62.9943V23.6763ZM14.39 23.6763V22.1763H10.9634L13.2879 24.6938L14.39 23.6763ZM38.6937 49.9984L37.5916 51.016C37.8756 51.3236 38.2751 51.4985 38.6937 51.4984C39.1123 51.4984 39.5119 51.3235 39.7958 51.0159L38.6937 49.9984ZM13.2879 24.6938L37.5916 51.016L39.7957 48.9809L15.492 22.6587L13.2879 24.6938ZM62.9943 22.1763H14.39V25.1763H62.9943V22.1763ZM61.8922 22.6588L37.5915 48.981L39.7958 51.0159L64.0965 24.6938L61.8922 22.6588Z" fill="#FF1083"/>
</g>
<path d="M29.4437 77.7485H47.9437" stroke="#FF1083" stroke-width="3" stroke-linecap="round" stroke-linejoin="round"/>
<path d="M38.6937 77.7485V49.9985" stroke="#FF1083" stroke-width="3" stroke-linecap="round" stroke-linejoin="round"/>
<path d="M6.41148 6.87641L4.91435 6.78359L4.72872 9.77785L6.22585 9.87066L6.41148 6.87641ZM17.4519 9.06375L18.7551 8.32109L18.3538 7.61678L17.5447 7.56662L17.4519 9.06375ZM24.1967 23.9297C24.6069 24.6494 25.5229 24.9004 26.2427 24.4903C26.9624 24.0801 27.2134 23.1641 26.8033 22.4444L24.1967 23.9297ZM6.22585 9.87066L17.3591 10.5609L17.5447 7.56662L6.41148 6.87641L6.22585 9.87066ZM16.1486 9.8064L24.1967 23.9297L26.8033 22.4444L18.7551 8.32109L16.1486 9.8064Z" fill="#FF1083"/>
<path d="M62.9943 23.6763L64.0965 24.6938L66.4206 22.1763H62.9943V23.6763ZM14.39 23.6763V22.1763H10.9634L13.2879 24.6938L14.39 23.6763ZM38.6937 49.9984L37.5916 51.016C37.8756 51.3236 38.2751 51.4985 38.6937 51.4984C39.1123 51.4984 39.5119 51.3235 39.7958 51.0159L38.6937 49.9984ZM13.2879 24.6938L37.5916 51.016L39.7957 48.9809L15.492 22.6587L13.2879 24.6938ZM62.9943 22.1763H14.39V25.1763H62.9943V22.1763ZM61.8922 22.6588L37.5915 48.981L39.7958 51.0159L64.0965 24.6938L61.8922 22.6588Z" fill="#FF1083"/>
</g>
<defs>
<filter id="filter0_f_3_8635" x="47.0687" y="2.89453" width="34.1065" height="34.1064" filterUnits="userSpaceOnUse" color-interpolation-filters="sRGB">
<feFlood flood-opacity="0" result="BackgroundImageFix"/>
<feBlend mode="normal" in="SourceGraphic" in2="BackgroundImageFix" result="shape"/>
<feGaussianBlur stdDeviation="2" result="effect1_foregroundBlur_3_8635"/>
</filter>
<filter id="filter1_d_3_8635" x="47.0687" y="6.89453" width="34.1065" height="34.1064" filterUnits="userSpaceOnUse" color-interpolation-filters="sRGB">
<feFlood flood-opacity="0" result="BackgroundImageFix"/>
<feColorMatrix in="SourceAlpha" type="matrix" values="0 0 0 0 0 0 0 0 0 0 0 0 0 0 0 0 0 0 127 0" result="hardAlpha"/>
<feOffset dy="4"/>
<feGaussianBlur stdDeviation="2"/>
<feComposite in2="hardAlpha" operator="out"/>
<feColorMatrix type="matrix" values="0 0 0 0 0 0 0 0 0 0 0 0 0 0 0 0 0 0 0.25 0"/>
<feBlend mode="normal" in2="BackgroundImageFix" result="effect1_dropShadow_3_8635"/>
<feBlend mode="normal" in="SourceGraphic" in2="effect1_dropShadow_3_8635" result="shape"/>
</filter>
<filter id="filter2_f_3_8635" x="-1.2713" y="0.783691" width="73.6919" height="84.4648" filterUnits="userSpaceOnUse" color-interpolation-filters="sRGB">
<feFlood flood-opacity="0" result="BackgroundImageFix"/>
<feBlend mode="normal" in="SourceGraphic" in2="BackgroundImageFix" result="shape"/>
<feGaussianBlur stdDeviation="3" result="effect1_foregroundBlur_3_8635"/>
</filter>
<clipPath id="clip0_3_8635">
<rect width="84" height="85" fill="white" transform="translate(0 0.687012)"/>
</clipPath>
</defs>
</svg>
