<svg width="24" height="25" viewBox="0 0 24 25" fill="none" xmlns="http://www.w3.org/2000/svg">
<g clip-path="url(#clip0_3_8889)">
<g filter="url(#filter0_f_3_8889)">
<path d="M5.18591 2.61035L9.16372 6.58816L7.34077 8.41111C7.07695 8.67494 9.01223 11.7404 11.1535 13.8817C13.2947 16.0229 15.9347 17.5327 16.1985 17.2688L18.0215 15.4459L21.9993 19.4237L19.9176 21.5054C18.721 22.7019 16.864 22.9641 15.4019 22.1079C13.4088 20.942 12.4794 20.5113 8.5016 16.5335C4.5238 12.5557 3.66764 11.2009 2.5017 9.20769C1.64724 7.74729 1.90767 5.8886 3.10424 4.69202L5.18591 2.61035Z" stroke="#FF1083" stroke-width="1.6" stroke-linecap="square"/>
</g>
<path d="M5.18591 2.61035L9.16372 6.58816L7.34077 8.41111C7.07695 8.67494 9.01223 11.7404 11.1535 13.8817C13.2947 16.0229 15.9347 17.5327 16.1985 17.2688L18.0215 15.4459L21.9993 19.4237L19.9176 21.5054C18.721 22.7019 16.864 22.9641 15.4019 22.1079C13.4088 20.942 12.4794 20.5113 8.5016 16.5335C4.5238 12.5557 3.66764 11.2009 2.5017 9.20769C1.64724 7.74729 1.90767 5.8886 3.10424 4.69202L5.18591 2.61035Z" stroke="#FF1083" stroke-width="1.4" stroke-linecap="square"/>
</g>
<defs>
<filter id="filter0_f_3_8889" x="-1.20017" y="-0.921484" width="26.7308" height="26.7316" filterUnits="userSpaceOnUse" color-interpolation-filters="sRGB">
<feFlood flood-opacity="0" result="BackgroundImageFix"/>
<feBlend mode="normal" in="SourceGraphic" in2="BackgroundImageFix" result="shape"/>
<feGaussianBlur stdDeviation="1.2" result="effect1_foregroundBlur_3_8889"/>
</filter>
<clipPath id="clip0_3_8889">
<rect width="24" height="24" fill="white" transform="translate(0 0.610352)"/>
</clipPath>
</defs>
</svg>
