<svg width="71" height="88" viewBox="0 0 71 88" fill="none" xmlns="http://www.w3.org/2000/svg">
<g opacity="0.4" filter="url(#filter0_f_31_11695)">
<path d="M35.9971 22.3091L37.2969 21.5605L35.9967 19.3027L34.697 21.5609L35.9971 22.3091ZM40.726 30.5202L39.4262 31.2688L39.7815 31.8858L40.4842 32.0006L40.726 30.5202ZM49 31.8721L50.115 32.8756L51.9518 30.8345L49.2419 30.3918L49 31.8721ZM42.6292 38.9511L41.5143 37.9477L41.0034 38.5153L41.1619 39.2623L42.6292 38.9511ZM44.5926 48.209L44.0075 49.5902L46.6568 50.7125L46.0599 47.8978L44.5926 48.209ZM35.9971 44.5678L36.5822 43.1866L35.9971 42.9388L35.412 43.1866L35.9971 44.5678ZM27.4121 48.2044L25.9447 47.8932L25.3478 50.7078L27.9972 49.5856L27.4121 48.2044ZM29.3754 38.9464L30.8428 39.2576L31.0013 38.5103L30.49 37.9426L29.3754 38.9464ZM23 31.8675L22.7581 30.3871L20.047 30.8301L21.8854 32.8713L23 31.8675ZM31.274 30.5156L31.5158 31.996L32.2187 31.8811L32.574 31.2638L31.274 30.5156ZM34.4971 22.3102C34.4971 23.1386 35.1687 23.8102 35.9971 23.8102C36.8255 23.8102 37.4971 23.1386 37.4971 22.3102H34.4971ZM34.6973 23.0577L39.4262 31.2688L42.0259 29.7716L37.2969 21.5605L34.6973 23.0577ZM37.4971 22.3102V22.3091H34.4971V22.3102H37.4971ZM34.697 21.5609L29.9739 29.7674L32.574 31.2638L37.2972 23.0573L34.697 21.5609ZM21.8854 32.8713L28.2608 39.9503L30.49 37.9426L24.1146 30.8637L21.8854 32.8713ZM23.2419 33.3479L31.5158 31.996L31.0321 29.0352L22.7581 30.3871L23.2419 33.3479ZM27.9972 49.5856L36.5822 45.949L35.412 43.1866L26.827 46.8232L27.9972 49.5856ZM27.9081 38.6353L25.9447 47.8932L28.8795 48.5156L30.8428 39.2576L27.9081 38.6353ZM45.1777 46.8278L36.5822 43.1866L35.412 45.949L44.0075 49.5902L45.1777 46.8278ZM46.0599 47.8978L44.0966 38.6399L41.1619 39.2623L43.1252 48.5202L46.0599 47.8978ZM47.885 30.8687L41.5143 37.9477L43.7442 39.9545L50.115 32.8756L47.885 30.8687ZM49.2419 30.3918L40.9679 29.0399L40.4842 32.0006L48.7581 33.3525L49.2419 30.3918Z" fill="#9D00FF"/>
</g>
<g opacity="0.81" filter="url(#filter1_f_31_11695)">
<path d="M63.5 36.0573L65 36.057L63.5 36.0573ZM30.2 63.2523L31.6 62.7139C31.4163 62.2361 31.0015 61.885 30.5 61.7826L30.2 63.2523ZM35.75 77.6823L34.35 78.2208L35.75 81.8609L37.15 78.2208L35.75 77.6823ZM41.3 63.2523L41 61.7826C40.4985 61.885 40.0837 62.2361 39.9 62.7139L41.3 63.2523ZM65 36.057C64.9989 30.5228 63.4277 25.1024 60.469 20.4254L57.9337 22.0292C60.589 26.2265 61.999 31.091 62 36.0576L65 36.057ZM60.469 20.4254C57.5102 15.7484 53.2854 12.0068 48.285 9.63508L46.9994 12.3456C51.4869 14.4741 55.2784 17.832 57.9337 22.0292L60.469 20.4254ZM48.285 9.63508C43.2847 7.26337 37.7141 6.35892 32.2203 7.02675L32.5823 10.0048C37.5127 9.40549 42.5119 10.2172 46.9994 12.3456L48.285 9.63508ZM32.2203 7.02675C26.7265 7.69459 21.5348 9.90732 17.2484 13.4079L19.146 15.7315C22.9928 12.59 27.652 10.6042 32.5823 10.0048L32.2203 7.02675ZM17.2484 13.4079C12.9619 16.9086 9.75649 21.5534 8.00445 26.803L10.8501 27.7528C12.4225 23.0416 15.2991 18.8731 19.146 15.7315L17.2484 13.4079ZM8.00445 26.803C6.25241 32.0527 6.02563 37.6916 7.35045 43.065L10.2632 42.3468C9.07428 37.5246 9.2778 32.464 10.8501 27.7528L8.00445 26.803ZM7.35045 43.065C8.67527 48.4384 11.4973 53.3256 15.4888 57.1592L17.5669 54.9955C13.9848 51.5551 11.4522 47.1691 10.2632 42.3468L7.35045 43.065ZM15.4888 57.1592C19.4804 60.9927 24.4775 63.6152 29.9 64.722L30.5 61.7826C25.6337 60.7893 21.149 58.4358 17.5669 54.9955L15.4888 57.1592ZM28.8 63.7908L34.35 78.2208L37.15 77.1439L31.6 62.7139L28.8 63.7908ZM37.15 78.2208L42.7 63.7908L39.9 62.7139L34.35 77.1439L37.15 78.2208ZM41.6 64.722C48.2068 63.3734 54.1447 59.7836 58.4088 54.56L56.0849 52.6629C52.2581 57.3507 46.9292 60.5724 41 61.7826L41.6 64.722ZM58.4088 54.56C62.673 49.3365 65.0014 42.8001 65 36.057L62 36.0576C62.0012 42.1091 59.9116 47.9751 56.0849 52.6629L58.4088 54.56Z" fill="#FF1083"/>
</g>
<path d="M35.9971 22.3091L37.2969 21.5605L35.9967 19.3027L34.697 21.5609L35.9971 22.3091ZM40.726 30.5202L39.4262 31.2688L39.7815 31.8858L40.4842 32.0006L40.726 30.5202ZM49 31.8721L50.115 32.8756L51.9518 30.8345L49.2419 30.3918L49 31.8721ZM42.6292 38.9511L41.5143 37.9477L41.0034 38.5153L41.1619 39.2623L42.6292 38.9511ZM44.5926 48.209L44.0075 49.5902L46.6568 50.7125L46.0599 47.8978L44.5926 48.209ZM35.9971 44.5678L36.5822 43.1866L35.9971 42.9388L35.412 43.1866L35.9971 44.5678ZM27.4121 48.2044L25.9447 47.8932L25.3478 50.7078L27.9972 49.5856L27.4121 48.2044ZM29.3754 38.9464L30.8428 39.2576L31.0013 38.5103L30.49 37.9426L29.3754 38.9464ZM23 31.8675L22.7581 30.3871L20.047 30.8301L21.8854 32.8713L23 31.8675ZM31.274 30.5156L31.5158 31.996L32.2187 31.8811L32.574 31.2638L31.274 30.5156ZM34.4971 22.3102C34.4971 23.1386 35.1687 23.8102 35.9971 23.8102C36.8255 23.8102 37.4971 23.1386 37.4971 22.3102H34.4971ZM34.6973 23.0577L39.4262 31.2688L42.0259 29.7716L37.2969 21.5605L34.6973 23.0577ZM37.4971 22.3102V22.3091H34.4971V22.3102H37.4971ZM34.697 21.5609L29.9739 29.7674L32.574 31.2638L37.2972 23.0573L34.697 21.5609ZM21.8854 32.8713L28.2608 39.9503L30.49 37.9426L24.1146 30.8637L21.8854 32.8713ZM23.2419 33.3479L31.5158 31.996L31.0321 29.0352L22.7581 30.3871L23.2419 33.3479ZM27.9972 49.5856L36.5822 45.949L35.412 43.1866L26.827 46.8232L27.9972 49.5856ZM27.9081 38.6352L25.9447 47.8932L28.8795 48.5156L30.8428 39.2576L27.9081 38.6352ZM45.1777 46.8278L36.5822 43.1866L35.412 45.949L44.0075 49.5902L45.1777 46.8278ZM46.0599 47.8978L44.0966 38.6399L41.1619 39.2623L43.1252 48.5202L46.0599 47.8978ZM47.885 30.8687L41.5143 37.9477L43.7442 39.9545L50.115 32.8756L47.885 30.8687ZM49.2419 30.3918L40.9679 29.0399L40.4842 32.0006L48.7581 33.3525L49.2419 30.3918Z" fill="#9D00FF"/>
<path d="M63.5 36.0573L65 36.057L63.5 36.0573ZM30.2 63.2523L31.6 62.7139C31.4163 62.2361 31.0015 61.885 30.5 61.7826L30.2 63.2523ZM35.75 77.6823L34.35 78.2208L35.75 81.8609L37.15 78.2208L35.75 77.6823ZM41.3 63.2523L41 61.7826C40.4985 61.885 40.0837 62.2361 39.9 62.7139L41.3 63.2523ZM65 36.057C64.9989 30.5228 63.4277 25.1024 60.469 20.4254L57.9337 22.0292C60.589 26.2265 61.999 31.091 62 36.0576L65 36.057ZM60.469 20.4254C57.5102 15.7484 53.2854 12.0068 48.285 9.63508L46.9994 12.3456C51.4869 14.4741 55.2784 17.832 57.9337 22.0292L60.469 20.4254ZM48.285 9.63508C43.2847 7.26337 37.7141 6.35892 32.2203 7.02675L32.5823 10.0048C37.5127 9.40549 42.5119 10.2172 46.9994 12.3456L48.285 9.63508ZM32.2203 7.02675C26.7265 7.69459 21.5348 9.90732 17.2484 13.4079L19.146 15.7315C22.9928 12.59 27.652 10.6042 32.5823 10.0048L32.2203 7.02675ZM17.2484 13.4079C12.9619 16.9086 9.75649 21.5534 8.00445 26.803L10.8501 27.7528C12.4225 23.0416 15.2991 18.8731 19.146 15.7315L17.2484 13.4079ZM8.00445 26.803C6.25241 32.0527 6.02563 37.6916 7.35045 43.065L10.2632 42.3468C9.07428 37.5246 9.2778 32.464 10.8501 27.7528L8.00445 26.803ZM7.35045 43.065C8.67527 48.4384 11.4973 53.3256 15.4888 57.1592L17.5669 54.9955C13.9848 51.5551 11.4522 47.1691 10.2632 42.3468L7.35045 43.065ZM15.4888 57.1592C19.4804 60.9927 24.4775 63.6152 29.9 64.722L30.5 61.7826C25.6337 60.7893 21.149 58.4358 17.5669 54.9955L15.4888 57.1592ZM28.8 63.7908L34.35 78.2208L37.15 77.1439L31.6 62.7139L28.8 63.7908ZM37.15 78.2208L42.7 63.7908L39.9 62.7139L34.35 77.1439L37.15 78.2208ZM41.6 64.722C48.2068 63.3734 54.1447 59.7836 58.4088 54.56L56.0849 52.6629C52.2581 57.3507 46.9292 60.5724 41 61.7826L41.6 64.722ZM58.4088 54.56C62.673 49.3365 65.0014 42.8001 65 36.057L62 36.0576C62.0012 42.1091 59.9116 47.9751 56.0849 52.6629L58.4088 54.56Z" fill="#FF1083"/>
<defs>
<filter id="filter0_f_31_11695" x="16.0471" y="15.3027" width="39.9048" height="39.4097" filterUnits="userSpaceOnUse" color-interpolation-filters="sRGB">
<feFlood flood-opacity="0" result="BackgroundImageFix"/>
<feBlend mode="normal" in="SourceGraphic" in2="BackgroundImageFix" result="shape"/>
<feGaussianBlur stdDeviation="2" result="effect1_foregroundBlur_31_11695"/>
</filter>
<filter id="filter1_f_31_11695" x="0.5" y="0.812988" width="70.5" height="87.0479" filterUnits="userSpaceOnUse" color-interpolation-filters="sRGB">
<feFlood flood-opacity="0" result="BackgroundImageFix"/>
<feBlend mode="normal" in="SourceGraphic" in2="BackgroundImageFix" result="shape"/>
<feGaussianBlur stdDeviation="3" result="effect1_foregroundBlur_31_11695"/>
</filter>
</defs>
</svg>
